# Blender 4.0.1
# www.blender.org
o Cube.001
v -1.301049 0.000000 1.301050
v -0.805613 6.900972 0.805613
v -1.301049 0.000000 -1.301050
v -0.805613 6.900972 -0.805613
v 1.301050 0.000000 1.301050
v 0.805613 6.900972 0.805613
v 1.301050 0.000000 -1.301050
v 0.805613 6.900972 -0.805613
v -0.939241 4.701210 0.939241
v -0.939241 4.701210 -0.939241
v 0.939241 4.701210 -0.939241
v 0.939241 4.701210 0.939241
v -0.939241 5.447517 0.939241
v -0.939241 5.447517 -0.939241
v 0.939241 5.447517 0.939241
v 0.939241 5.447517 -0.939241
v -0.379239 7.692279 0.379239
v -1.493798 4.701210 -1.493798
v 1.493799 4.701210 -1.493798
v 1.493799 4.701210 1.493798
v -1.493798 4.701210 1.493798
v -0.379239 7.692279 -0.379239
v 0.379240 7.692279 0.379239
v 0.379240 7.692279 -0.379239
v -0.047658 8.949886 0.047659
v -0.047658 8.949886 -0.047659
v 0.047659 8.949886 0.047659
v 0.047659 8.949886 -0.047659
v -0.939241 6.347522 -0.939241
v 0.939241 6.347522 0.939241
v 0.939241 6.347522 -0.939241
v -0.939241 6.347522 0.939241
v -1.122091 6.347522 1.122091
v -1.122091 6.347522 -1.122091
v 1.122091 6.347522 -1.122091
v 1.122091 6.347522 1.122091
v -1.194863 1.379751 -1.194863
v 1.194863 1.379751 -1.194863
v 1.194863 1.379751 1.194863
v -1.194863 1.379751 1.194863
v 1.301050 0.000000 0.400556
v 1.194863 1.379751 0.329790
v 1.301050 0.000000 -0.400556
v 1.194863 1.379751 -0.329790
v 0.721726 0.000000 0.400556
v 0.615539 1.379751 0.329790
v 0.721726 0.000000 -0.400556
v 0.615539 1.379751 -0.329790
vn -0.0000 -1.0000 -0.0000
vn -0.0000 -0.0512 0.9987
vn 0.8803 0.4743 -0.0000
vn -0.0000 0.0767 0.9971
vn 0.9971 0.0767 -0.0000
vn -0.0000 0.0767 -0.9971
vn -0.9971 0.0767 -0.0000
vn -0.0000 0.4743 -0.8803
vn -0.0000 0.4743 0.8803
vn -0.8803 0.4743 -0.0000
vn -0.8027 0.5964 -0.0000
vn -0.0000 0.4964 0.8681
vn -0.8681 0.4964 -0.0000
vn -0.0000 0.5964 0.8027
vn -0.0000 0.5964 -0.8027
vn 0.8027 0.5964 -0.0000
vn -0.0000 0.2549 0.9670
vn 0.9670 0.2549 -0.0000
vn -0.9670 0.2549 -0.0000
vn -0.0000 0.2549 -0.9670
vn -0.0000 1.0000 -0.0000
vn -1.0000 -0.0000 -0.0000
vn -0.0000 -0.0000 -1.0000
vn 1.0000 -0.0000 -0.0000
vn -0.0000 -0.0000 1.0000
vn -0.0000 0.4964 -0.8681
vn 0.8681 0.4964 -0.0000
vn -0.0000 -0.0512 -0.9987
vt 0.396108 0.963812
vt 0.396108 0.804255
vt 0.411639 0.788724
vt 0.411639 0.979343
vt 0.147489 0.516720
vt 0.147489 0.402567
vt 0.196542 0.398679
vt 0.196542 0.512832
vt 0.973119 0.182489
vt 0.836263 0.182489
vt 0.872478 0.110066
vt 0.936903 0.110066
vt 0.230039 0.280968
vt 0.251752 0.000000
vt 0.411308 0.000000
vt 0.433020 0.280968
vt 0.009019 0.281671
vt 0.030732 0.000000
vt 0.082498 0.281671
vt 0.451059 0.280968
vt 0.472772 0.000000
vt 0.632328 0.000000
vt 0.654040 0.280968
vt 0.230039 0.673958
vt 0.251752 0.397683
vt 0.411308 0.397683
vt 0.433020 0.673958
vt 0.236551 0.804255
vt 0.236551 0.963812
vt 0.221020 0.979343
vt 0.221020 0.788724
vt 0.163737 0.835664
vt 0.026881 0.835664
vt 0.063097 0.762698
vt 0.127522 0.762698
vt 0.942234 0.834669
vt 0.805378 0.834669
vt 0.841594 0.761702
vt 0.906018 0.761702
vt 0.751615 0.836674
vt 0.614759 0.836674
vt 0.650975 0.761842
vt 0.715400 0.761842
vt 0.073153 0.605339
vt 0.073153 0.445782
vt 0.147489 0.398679
vt 0.147489 0.652442
vt 0.969116 0.886003
vt 0.778497 0.886003
vt 0.778497 0.889463
vt 0.587878 0.889463
vt 0.734391 0.047104
vt 0.734391 0.206660
vt 0.663060 0.253764
vt 0.663060 -0.000000
vt 0.767135 0.444787
vt 0.767135 0.604343
vt 0.695804 0.651447
vt 0.695804 0.397683
vt 0.648700 0.604343
vt 0.648700 0.444786
vt 0.695804 0.397683
vt 0.695804 0.651447
vt 0.512562 0.698550
vt 0.512562 0.858107
vt 0.442040 0.905210
vt 0.442040 0.651447
vt 0.489143 0.444786
vt 0.489143 0.604343
vt 0.442040 0.397683
vt 0.869758 0.651447
vt 0.877854 0.651447
vt 0.900643 0.000000
vt 0.908739 0.000000
vt 0.679139 0.651447
vt 0.687235 0.651447
vt 0.091261 0.652442
vt 0.099357 0.652442
vt 0.204638 0.398679
vt 0.204638 0.406775
vt 0.196542 0.406775
vt 0.196542 0.398679
vt -0.000000 0.605339
vt -0.000000 0.445782
vt 0.842125 0.444787
vt 0.842125 0.604343
vt 0.587878 0.698550
vt 0.587878 0.858107
vt 0.809381 0.047104
vt 0.809381 0.206660
vt 0.190619 0.886999
vt 0.000000 0.886999
vt 1.000000 0.233408
vt 0.809381 0.233408
vt 0.442040 0.788724
vt 0.663060 0.397683
vt 0.221020 0.397683
vt 0.442040 0.397683
vt 0.212001 0.281671
vt 0.221020 0.398679
vt 0.144533 0.398679
vt 0.138522 0.281671
vt 0.000000 0.398679
vt 0.076487 0.398679
vt 0.196542 0.520608
vt 0.196542 0.634761
vt 0.147489 0.630874
vt 0.731106 0.309788
vt 0.731106 0.253764
vt 0.780313 0.253764
vt 0.780313 0.309788
vt 0.731106 0.370771
vt 0.663060 0.370771
vt 0.669071 0.253764
vt 0.725095 0.253764
vt 0.190288 0.000000
s 0
f 29/1/1 32/2/1 33/3/1 34/4/1
f 43/5/2 44/6/2 48/7/2 47/8/2
f 6/9/3 8/10/3 24/11/3 23/12/3
f 39/13/4 12/14/4 9/15/4 40/16/4
f 38/17/5 11/18/5 44/19/5
f 37/20/6 10/21/6 11/22/6 38/23/6
f 40/24/7 9/25/7 10/26/7 37/27/7
f 30/28/1 31/29/1 35/30/1 36/31/1
f 8/32/8 4/33/8 22/34/8 24/35/8
f 2/36/9 6/37/9 23/38/9 17/39/9
f 4/40/10 2/41/10 17/42/10 22/43/10
f 13/44/11 14/45/11 18/46/11 21/47/11
f 6/37/12 2/36/12 33/48/12 36/49/12
f 2/41/13 4/40/13 34/50/13 33/51/13
f 15/52/14 13/53/14 21/54/14 20/55/14
f 14/56/15 16/57/15 19/58/15 18/59/15
f 10/60/1 9/61/1 21/62/1 18/63/1
f 16/64/16 15/65/16 20/66/16 19/67/16
f 12/68/1 11/69/1 19/67/1 20/70/1
f 11/69/1 10/60/1 18/63/1 19/67/1
f 9/61/1 12/68/1 20/70/1 21/62/1
f 17/39/17 23/38/17 27/71/17 25/72/17
f 23/12/18 24/11/18 28/73/18 27/74/18
f 22/43/19 17/42/19 25/75/19 26/76/19
f 24/35/20 22/34/20 26/77/20 28/78/20
f 27/79/21 28/80/21 26/81/21 25/82/21
f 13/44/22 32/83/22 29/84/22 14/45/22
f 14/56/23 29/85/23 31/86/23 16/57/23
f 16/64/24 31/87/24 30/88/24 15/65/24
f 15/52/25 30/89/25 32/90/25 13/53/25
f 4/33/26 8/32/26 35/91/26 34/92/26
f 32/2/1 30/28/1 36/31/1 33/3/1
f 31/29/1 29/1/1 34/4/1 35/30/1
f 8/10/27 6/9/27 36/93/27 35/94/27
f 1/31/7 40/24/7 37/27/7 3/95/7
f 3/70/6 37/20/6 38/23/6 7/96/6
f 5/97/4 39/13/4 40/16/4 1/98/4
f 39/99/5 5/100/5 41/101/5 42/102/5
f 7/103/5 38/17/5 44/19/5 43/104/5
f 42/105/28 41/106/28 45/107/28 46/5/28
f 44/108/1 42/109/1 46/110/1 48/111/1
f 45/112/5 47/113/5 48/114/5 46/115/5
f 39/99/5 42/102/5 12/116/5
f 11/18/5 12/116/5 42/102/5 44/19/5
