# Blender 4.0.1
# www.blender.org
o Tower1
v 1.004679 4.726886 -1.004680
v 1.330980 0.005952 -1.330982
v 1.004679 4.726886 1.004680
v 1.330980 0.005952 1.330982
v -1.004679 4.726886 -1.004680
v -1.330980 0.005952 -1.330982
v -1.004679 4.726886 1.004680
v -1.330980 0.005952 1.330982
v -1.499850 4.726886 1.499852
v -1.499850 4.726886 -1.499852
v -0.782293 5.700112 0.782293
v 1.499850 4.726886 1.499852
v 1.499850 4.726886 -1.499852
v -0.782293 5.700112 -0.782293
v 0.782293 5.700112 0.782293
v 0.782293 5.700112 -0.782293
v -0.782293 8.787363 0.782293
v -0.782293 8.787363 -0.782293
v 0.782293 8.787363 0.782293
v 0.782293 8.787363 -0.782293
v -1.032835 8.787363 1.017060
v -1.032835 8.787363 -1.017060
v 1.001284 8.787363 1.017060
v 1.001284 8.787363 -1.017060
v -0.531082 9.469925 0.531083
v -0.531082 9.469925 -0.531083
v 0.531082 9.469925 0.531083
v 0.531082 9.469925 -0.531083
v -0.080769 10.452148 0.091494
v -0.080769 10.452148 -0.091494
v 0.102219 10.452148 0.091494
v 0.102219 10.452148 -0.091494
v 0.000000 10.968231 0.000000
v 1.215732 1.673362 1.215734
v -1.215732 1.673362 1.215734
v 1.215732 1.673362 -1.215734
v -1.215732 1.673362 -1.215734
v -1.330980 0.005952 -0.443661
v -1.330980 0.005952 0.443661
v 1.004679 4.726886 -0.334893
v 1.004679 4.726886 0.334893
v -1.004679 4.726886 0.334893
v -1.004679 4.726886 -0.334893
v 1.330980 0.005952 0.443661
v 1.330980 0.005952 -0.443661
v 0.782293 5.700112 -0.260765
v 0.782293 5.700112 0.260765
v -0.782293 5.700112 0.260765
v -0.782293 5.700112 -0.260765
v -1.499850 4.726886 0.499951
v -1.499850 4.726886 -0.499951
v 1.499850 4.726886 -0.499951
v 1.499850 4.726886 0.499951
v 0.782293 8.787363 -0.260765
v 0.782293 8.787363 0.260765
v -0.782293 8.787363 0.260765
v -0.782293 8.787363 -0.260765
v 1.001284 8.787363 -0.339020
v 1.001284 8.787363 0.339020
v -1.032835 8.787363 0.339020
v -1.032835 8.787363 -0.339020
v 0.531082 9.469925 -0.177028
v 0.531082 9.469925 0.177028
v -0.531082 9.469925 0.177028
v -0.531082 9.469925 -0.177028
v 0.102219 10.452148 -0.030498
v 0.102219 10.452148 0.030498
v -0.080769 10.452148 0.030498
v -0.080769 10.452148 -0.030498
v -1.215732 1.673362 0.405245
v -1.215732 1.673362 -0.405245
v 1.215732 1.673362 -0.405245
v 1.215732 1.673362 0.405245
v 0.443660 0.005952 -1.330982
v -0.443660 0.005952 -1.330982
v 0.334893 4.726886 1.004680
v -0.334893 4.726886 1.004680
v -0.443660 0.005952 1.330982
v 0.443660 0.005952 1.330982
v -0.334893 4.726886 -1.004680
v 0.334893 4.726886 -1.004680
v -0.499950 4.726886 -1.499852
v 0.499950 4.726886 -1.499852
v 0.260764 5.700112 0.782293
v -0.260764 5.700112 0.782293
v -0.260764 5.700112 -0.782293
v 0.260764 5.700112 -0.782293
v 0.499950 4.726886 1.499852
v -0.499950 4.726886 1.499852
v 0.260764 8.787363 0.782293
v -0.260764 8.787363 0.782293
v -0.260764 8.787363 -0.782293
v 0.260764 8.787363 -0.782293
v 0.323244 8.787363 1.017060
v -0.354795 8.787363 1.017060
v -0.354795 8.787363 -1.017060
v 0.323244 8.787363 -1.017060
v 0.177027 9.469925 0.531083
v -0.177027 9.469925 0.531083
v -0.177027 9.469925 -0.531083
v 0.177027 9.469925 -0.531083
v 0.041223 10.452148 0.091494
v -0.019773 10.452148 0.091494
v -0.019773 10.452148 -0.091494
v 0.041223 10.452148 -0.091494
v -0.405244 1.673362 -1.215734
v 0.405244 1.673362 -1.215734
v 0.405244 1.673362 1.215734
v -0.405244 1.673362 1.215734
v 0.443660 0.005952 -0.443661
v -0.443660 0.005952 -0.443661
v 0.443660 0.005952 0.443661
v -0.443660 0.005952 0.443661
v -1.204008 1.842990 1.204010
v -1.204008 1.842990 -1.204010
v 1.204008 1.842990 1.204010
v 1.204008 1.842990 -1.204010
v 1.204008 1.842990 -0.401336
v 1.204008 1.842990 0.401336
v -1.204008 1.842990 0.401336
v -1.204008 1.842990 -0.401336
v -0.401336 1.842990 -1.204010
v 0.401336 1.842990 -1.204010
v 0.401336 1.842990 1.204010
v -0.401336 1.842990 1.204010
v 1.004679 4.726886 0.000000
v 0.782293 5.700112 0.000000
v 1.499850 4.726886 0.000000
v 0.782293 8.787363 0.000000
v 1.001284 8.787363 0.000000
v 0.531082 9.469925 0.000000
v 0.102219 10.452148 0.000000
v 1.204008 1.842990 0.000000
v 0.754408 0.005952 0.443661
v 0.754408 0.005952 -0.443661
v 0.639160 1.673362 0.405245
v 0.639160 1.673362 -0.405245
v 0.754408 0.005952 1.330982
v 0.569458 4.726886 1.004680
v 0.443408 5.700112 0.782293
v 0.850125 4.726886 1.499852
v 0.443408 8.787363 0.782293
v 0.560700 8.787363 1.017060
v 0.301021 9.469925 0.531083
v 0.062584 10.452148 0.091494
v 0.689085 1.673362 1.215734
v 0.682439 1.842990 1.204010
v 0.569458 4.726886 -1.004680
v 0.850125 4.726886 -1.499852
v 0.443408 5.700112 -0.782293
v 0.443408 8.787363 -0.782293
v 0.560700 8.787363 -1.017060
v 0.301021 9.469925 -0.531083
v 0.062584 10.452148 -0.091494
v 0.689085 1.673362 -1.215734
v 0.754408 0.005952 -1.330982
v 0.682439 1.842990 -1.204010
v 0.754408 0.005952 0.000000
v 0.627436 1.842990 0.000000
v -0.260764 6.620179 -0.782293
v 0.260764 6.620179 -0.782293
v 0.260764 7.867297 -0.782293
v 0.260764 7.867297 0.782293
v -0.260764 6.620179 0.782293
v 0.782293 6.620179 0.260765
v -0.782293 7.867297 0.260765
v -0.782293 6.620179 -0.260765
v 0.782293 7.867297 -0.782293
v 0.782293 6.620179 -0.782293
v -0.782293 7.867297 -0.782293
v -0.782293 6.620179 -0.782293
v 0.782293 7.867297 0.782293
v 0.782293 6.620179 0.782293
v -0.782293 7.867297 0.782293
v -0.782293 6.620179 0.782293
v -0.782293 7.867297 -0.260765
v -0.782293 6.620179 0.260765
v 0.782293 7.867297 0.260765
v 0.782293 6.620179 -0.260765
v -0.260764 7.867297 0.782293
v 0.260764 6.620179 0.782293
v -0.260764 7.867297 -0.782293
v 0.443408 6.620179 0.782293
v 0.443408 7.867297 0.782293
v 0.443408 6.620179 -0.782293
v 0.443408 7.867297 -0.782293
v 0.782293 6.620179 0.000000
v 0.782293 7.867297 0.000000
v 0.782293 7.867297 -0.260765
v 0.260764 7.867297 -0.582294
v 0.260764 6.620179 -0.582294
v -0.260764 6.620179 -0.582294
v -0.260764 7.867297 -0.582294
v 0.582293 7.867297 0.260765
v 0.582293 6.620179 0.260765
v 0.582293 7.867297 -0.260765
v 0.582293 6.620179 0.000000
v 0.582293 7.867297 0.000000
v -0.582293 7.867297 -0.260765
v -0.582293 6.620179 -0.260765
v -0.582293 6.620179 0.260765
v -0.582293 7.867297 0.260765
v 0.260764 6.620179 0.582294
v 0.260764 7.867297 0.582294
v -0.260764 7.867297 0.582294
v -0.260764 6.620179 0.582294
v 0.582293 6.620179 -0.260765
vn -0.0000 0.5934 -0.8049
vn -0.0000 0.0690 0.9976
vn -0.9976 0.0690 -0.0000
vn -0.0000 -1.0000 -0.0000
vn 0.9976 0.0690 -0.0000
vn -0.0000 0.0690 -0.9976
vn -0.8049 0.5934 -0.0000
vn -0.0000 0.5934 0.8049
vn 0.8049 0.5934 -0.0000
vn -1.0000 -0.0000 -0.0000
vn -0.0000 -0.0000 -1.0000
vn -0.0000 -0.0000 1.0000
vn 1.0000 -0.0000 -0.0000
vn -0.0000 0.5800 -0.8146
vn 0.8235 0.5673 -0.0000
vn -0.8057 0.5923 -0.0000
vn -0.0000 0.5800 0.8146
vn -0.9090 0.4168 -0.0000
vn -0.0000 0.4085 0.9128
vn -0.0000 0.4085 -0.9128
vn 0.9165 0.4001 -0.0000
vn -0.9880 0.1546 -0.0000
vn -0.0000 0.1746 0.9846
vn -0.0000 0.1746 -0.9846
vn 0.9809 0.1943 -0.0000
vn -0.0000 -0.0230 0.9997
vn -0.0000 -0.9224 0.3861
vn -0.0000 -0.0230 -0.9997
vn -0.0000 -0.9224 -0.3861
vn -0.0000 1.0000 -0.0000
vt 0.690168 0.631029
vt 0.613369 0.631029
vt 0.668482 0.551861
vt 0.708539 0.551861
vt 0.133053 0.222018
vt 0.127950 0.000000
vt 0.179394 0.000000
vt 0.194704 0.222018
vt 0.541966 0.584016
vt 0.536863 0.363373
vt 0.588307 0.363373
vt 0.603617 0.584016
vt 0.453197 0.792717
vt 0.408913 0.792717
vt 0.408913 0.724565
vt 0.453197 0.724565
vt 0.541966 0.221975
vt 0.536863 0.000000
vt 0.588307 0.000000
vt 0.603617 0.221975
vt 0.359100 0.222002
vt 0.350423 0.000000
vt 0.383850 0.000000
vt 0.399160 0.222002
vt 0.071460 0.718173
vt 0.038032 0.718173
vt 0.000000 0.680141
vt 0.049903 0.680141
vt 0.076799 0.680141
vt 0.000000 0.680141
vt 0.055113 0.596695
vt 0.095170 0.596695
vt 0.663272 0.946306
vt 0.613369 0.946306
vt 0.668482 0.867393
vt 0.694511 0.867393
vt 0.690168 0.315600
vt 0.613369 0.315600
vt 0.668482 0.236132
vt 0.708539 0.236132
vt 0.140920 0.872505
vt 0.192365 0.872505
vt 0.230397 0.910538
vt 0.153598 0.910538
vt 0.038032 0.821061
vt 0.038032 0.872505
vt 0.000000 0.910538
vt 0.000000 0.833739
vt 0.192365 0.769617
vt 0.192365 0.718173
vt 0.230397 0.680141
vt 0.230397 0.756940
vt 0.175284 0.596695
vt 0.135227 0.596695
vt 0.135227 0.527181
vt 0.175284 0.527181
vt 0.788653 0.386011
vt 0.762624 0.386011
vt 0.762624 0.315599
vt 0.788653 0.315599
vt 0.788653 0.867393
vt 0.748596 0.867393
vt 0.748596 0.796951
vt 0.788653 0.796951
vt 0.788653 0.070372
vt 0.748596 0.070372
vt 0.748596 0.000000
vt 0.788653 0.000000
vt 0.980757 0.231298
vt 0.980757 0.191241
vt 1.000000 0.173210
vt 1.000000 0.225288
vt 0.886615 0.191241
vt 0.860586 0.191241
vt 0.843766 0.173210
vt 0.877606 0.173210
vt 0.940700 0.311412
vt 0.980757 0.311412
vt 1.000000 0.329444
vt 0.947922 0.329444
vt 0.860586 0.271355
vt 0.860586 0.311412
vt 0.843766 0.329444
vt 0.843766 0.277366
vt 0.313079 0.727923
vt 0.265715 0.749574
vt 0.277728 0.683158
vt 0.302461 0.671852
vt 0.303651 0.923398
vt 0.251573 0.923398
vt 0.288899 0.867896
vt 0.316093 0.867896
vt 0.313447 0.537934
vt 0.265715 0.558760
vt 0.276531 0.490211
vt 0.301456 0.479337
vt 0.879881 0.117970
vt 0.897551 0.117970
vt 0.275313 0.402988
vt 0.279607 0.401115
vt 0.912820 0.040073
vt 0.915864 0.040073
vt 0.276741 0.597802
vt 0.281001 0.595855
vt 0.322663 0.789764
vt 0.327348 0.789764
vt 0.288195 0.397368
vt 0.283901 0.399241
vt 0.265715 0.363417
vt 0.926875 0.040073
vt 0.922190 0.040073
vt 0.917505 0.040073
vt 0.920671 0.000000
vt 0.289523 0.591959
vt 0.286754 0.593225
vt 0.285262 0.593907
vt 0.265715 0.558760
vt 0.336717 0.789764
vt 0.332032 0.789764
vt 0.329690 0.789764
vt 0.329690 0.749574
vt 0.364628 0.363417
vt 0.359611 0.235060
vt 0.400061 0.235060
vt 0.408913 0.363417
vt 0.545217 0.363373
vt 0.542266 0.235032
vt 0.604517 0.235032
vt 0.613369 0.363373
vt 0.545217 0.724565
vt 0.542266 0.596994
vt 0.604517 0.596994
vt 0.613369 0.724565
vt 0.136304 0.363442
vt 0.133354 0.235076
vt 0.195604 0.235076
vt 0.204456 0.363442
vt 0.408913 0.724565
vt 0.417764 0.596994
vt 0.480015 0.596994
vt 0.477065 0.724565
vt 0.408913 0.363373
vt 0.417764 0.235032
vt 0.480015 0.235032
vt 0.477065 0.363373
vt 0.370481 0.867896
vt 0.343287 0.867896
vt 0.329690 0.867896
vt 0.351306 0.457587
vt 0.326381 0.468462
vt 0.408912 0.496282
vt 0.361180 0.517108
vt 0.407807 0.923398
vt 0.355729 0.923398
vt 0.329690 0.923398
vt 0.860586 0.231298
vt 0.843766 0.225288
vt 0.860586 0.251327
vt 0.843766 0.251327
vt 0.980757 0.271355
vt 1.000000 0.277366
vt 0.668482 0.481450
vt 0.708539 0.481450
vt 0.095170 0.527181
vt 0.788653 0.701470
vt 0.748596 0.701470
vt 0.748596 0.631029
vt 0.788653 0.631029
vt 0.728568 0.236132
vt 0.708539 0.165760
vt 0.728568 0.165760
vt 0.192365 0.821061
vt 0.230397 0.833739
vt 0.038032 0.769617
vt 0.000000 0.756940
vt 0.038032 0.795339
vt 0.000000 0.795339
vt 0.843766 0.315600
vt 0.766967 0.315600
vt 0.748596 0.236132
vt 0.788653 0.236132
vt 0.728568 0.315600
vt 0.230397 0.680141
vt 0.153598 0.680141
vt 0.418665 0.221975
vt 0.433975 0.000000
vt 0.485419 0.000000
vt 0.480315 0.221975
vt 0.511141 0.221975
vt 0.511141 0.000000
vt 0.453197 0.929022
vt 0.408913 0.929022
vt 0.408913 0.860870
vt 0.453197 0.860870
vt 0.418665 0.584016
vt 0.433975 0.363373
vt 0.485419 0.363373
vt 0.480315 0.584016
vt 0.613369 0.860870
vt 0.545217 0.860870
vt 0.545217 0.792717
vt 0.613369 0.792717
vt 0.477065 0.860870
vt 0.477065 0.792717
vt 0.613369 0.929022
vt 0.545217 0.929022
vt 0.477065 0.929022
vt 0.044285 0.363442
vt 0.049302 0.235076
vt 0.071103 0.235076
vt 0.068152 0.363442
vt 0.204456 0.363417
vt 0.213308 0.235060
vt 0.275559 0.235060
vt 0.272608 0.363417
vt 0.337810 0.235060
vt 0.340760 0.363417
vt 0.335854 0.656587
vt 0.327193 0.660547
vt 0.961462 0.117970
vt 0.934268 0.117970
vt 0.907075 0.117970
vt 0.947922 0.173210
vt 0.895844 0.173210
vt 0.377030 0.698690
vt 0.360443 0.706273
vt 0.886615 0.311412
vt 0.900643 0.311412
vt 0.895844 0.329444
vt 0.877606 0.329444
vt 0.940700 0.191241
vt 0.900643 0.191241
vt 0.055113 0.527181
vt 0.708539 0.867393
vt 0.708539 0.796951
vt 0.748596 0.551861
vt 0.748596 0.481450
vt 0.762624 0.551861
vt 0.762624 0.481450
vt 0.071460 0.872505
vt 0.089476 0.872505
vt 0.076799 0.910538
vt 0.049903 0.910538
vt 0.843766 0.946306
vt 0.766967 0.946306
vt 0.690168 0.946306
vt 0.140920 0.718173
vt 0.153598 0.680141
vt 0.089476 0.718173
vt 0.076799 0.680141
vt 0.214209 0.222002
vt 0.229518 0.000000
vt 0.280962 0.000000
vt 0.275859 0.222002
vt 0.332406 0.000000
vt 0.337510 0.222002
vt 0.545217 0.724565
vt 0.613369 0.724565
vt 0.477065 0.724565
vt 0.049812 0.222018
vt 0.058490 0.000000
vt 0.076506 0.000000
vt 0.071403 0.222018
vt 0.793863 0.631029
vt 0.766967 0.631029
vt 0.748596 0.165760
vt 0.843766 0.601641
vt 0.843766 0.473911
vt 0.887944 0.470842
vt 0.887944 0.598572
vt 0.887944 0.533093
vt 0.888845 0.501967
vt 0.933129 0.501967
vt 0.932229 0.533093
vt 0.887944 0.604712
vt 0.887944 0.732372
vt 0.843766 0.729301
vt 0.843766 0.601641
vt 0.887944 0.470842
vt 0.932229 0.470842
vt 0.008852 0.235076
vt 0.009752 0.222018
vt 0.025062 0.000000
vt 0.000000 0.363442
vt 0.694511 0.796951
vt 0.843766 0.631029
vt 0.788653 0.551861
vt 0.175284 0.432957
vt 0.135227 0.432957
vt 0.135227 0.363442
vt 0.175284 0.363442
vt 0.407807 0.684622
vt 0.351925 0.649241
vt 0.843766 0.470842
vt 0.846717 0.342500
vt 0.877842 0.329444
vt 0.877842 0.470842
vt 0.908968 0.342500
vt 0.911918 0.470842
vt 0.708539 0.070372
vt 0.668482 0.070372
vt 0.668482 0.000000
vt 0.708539 0.000000
vt 0.748596 0.386011
vt 0.708539 0.386011
vt 0.708539 0.315599
vt 0.748596 0.315599
vt 0.728568 0.070372
vt 0.728568 0.000000
vt 0.708539 0.701470
vt 0.694511 0.701470
vt 0.694511 0.631029
vt 0.708539 0.631029
vt 0.095170 0.432957
vt 0.095170 0.363442
vt 0.668482 0.701470
vt 0.668482 0.631029
vt 0.668482 0.796951
vt 0.788653 0.165760
vt 0.055113 0.432957
vt 0.055113 0.363442
vt 0.788653 0.481450
vt 0.668482 0.386011
vt 0.668482 0.315599
vt 0.668482 0.165760
vt 0.250353 0.554378
vt 0.250353 0.648603
vt 0.234992 0.648603
vt 0.234992 0.554378
vt 0.250353 0.649725
vt 0.250353 0.554337
vt 0.265715 0.554337
vt 0.265715 0.649725
vt 0.903306 0.533093
vt 0.887944 0.573150
vt 0.903306 0.573150
vt 0.903306 0.573150
vt 0.887944 0.573150
vt 0.887944 0.613206
vt 0.903306 0.613206
vt 0.843766 0.923293
vt 0.843766 0.827853
vt 0.883823 0.827853
vt 0.883823 0.923293
vt 0.250353 0.762855
vt 0.234992 0.762855
vt 0.234992 0.782884
vt 0.250353 0.782884
vt 0.250353 0.458898
vt 0.265715 0.458898
vt 0.265715 0.363417
vt 0.250353 0.363417
vt 0.234992 0.822941
vt 0.250353 0.822941
vt 0.250353 0.802912
vt 0.234992 0.802912
vt 0.234992 0.458898
vt 0.234992 0.363417
vt 0.250353 0.363417
vt 0.250353 0.458898
vt 0.250353 0.782884
vt 0.234992 0.782884
vt 0.250353 0.742827
vt 0.234992 0.742827
vt 0.883823 0.921984
vt 0.903851 0.921984
vt 0.903851 0.827759
vt 0.883823 0.827759
vt 0.250353 0.554337
vt 0.265715 0.554337
vt 0.265715 0.458898
vt 0.250353 0.458898
vt 0.234992 0.554378
vt 0.234992 0.862997
vt 0.250353 0.862997
vt 0.234992 0.903054
vt 0.250353 0.903054
vt 0.923880 0.827759
vt 0.923880 0.732372
vt 0.883823 0.732372
vt 0.883823 0.827759
vt 0.887944 0.653263
vt 0.903306 0.653263
vt 0.903306 0.613206
vt 0.887944 0.613206
vt 0.887944 0.693320
vt 0.903306 0.693320
vt 0.903306 0.653263
vt 0.887944 0.653263
vt 0.234992 0.742827
vt 0.234992 0.648603
vt 0.250353 0.648603
vt 0.250353 0.742827
vt 0.250353 0.743949
vt 0.265715 0.743949
vt 0.265715 0.649725
vt 0.250353 0.649725
vt 0.843766 0.732372
vt 0.883823 0.732372
vt 0.923880 0.921984
vt 0.923880 0.827759
s 0
f 82/1/1 10/2/1 14/3/1 86/4/1
f 125/5/2 77/6/2 7/7/2 114/8/2
f 121/9/3 43/10/3 5/11/3 115/12/3
f 134/13/4 44/14/4 4/15/4 138/16/4
f 119/17/5 41/18/5 3/19/5 116/20/5
f 157/21/6 148/22/6 1/23/6 117/24/6
f 139/25/4 3/26/4 12/27/4 141/28/4
f 50/29/7 9/30/7 11/31/7 48/32/7
f 141/33/8 12/34/8 15/35/8 140/36/8
f 52/37/9 13/38/9 16/39/9 46/40/9
f 80/41/4 5/42/4 10/43/4 82/44/4
f 40/45/4 1/46/4 13/47/4 52/48/4
f 42/49/4 7/50/4 9/51/4 50/52/4
f 14/53/10 49/54/10 167/55/10 171/56/10
f 168/57/11 186/58/11 151/59/11 20/60/11
f 11/61/12 85/62/12 164/63/12 175/64/12
f 172/65/13 178/66/13 55/67/13 19/68/13
f 56/69/4 17/70/4 21/71/4 60/72/4
f 142/73/4 19/74/4 23/75/4 143/76/4
f 92/77/4 18/78/4 22/79/4 96/80/4
f 54/81/4 20/82/4 24/83/4 58/84/4
f 96/85/14 22/86/14 26/87/14 100/88/14
f 58/89/15 24/90/15 28/91/15 62/92/15
f 60/93/16 21/94/16 25/95/16 64/96/16
f 143/76/17 23/75/17 27/97/17 144/98/17
f 64/96/18 25/95/18 29/99/18 68/100/18
f 144/98/19 27/97/19 31/101/19 145/102/19
f 100/88/20 26/87/20 30/103/20 104/104/20
f 62/92/21 28/91/21 32/105/21 66/106/21
f 30/107/22 69/108/22 68/100/22 29/99/22 33/109/22
f 29/110/23 103/111/23 102/112/23 145/102/23 31/101/23 33/113/23
f 32/114/24 154/115/24 105/116/24 104/104/24 30/103/24 33/117/24
f 31/118/25 67/119/25 132/120/25 66/106/25 32/105/25 33/121/25
f 156/122/6 155/123/6 36/124/6 2/125/6
f 44/126/5 73/127/5 34/128/5 4/129/5
f 38/130/3 71/131/3 37/132/3 6/133/3
f 78/134/2 109/135/2 35/136/2 8/137/2
f 8/138/3 35/139/3 70/140/3 39/141/3
f 39/141/3 70/140/3 71/131/3 38/130/3
f 2/142/5 36/143/5 72/144/5 45/145/5
f 27/146/21 63/147/21 67/119/21 31/118/21
f 131/148/21 62/92/21 66/106/21 132/120/21
f 26/149/18 65/150/18 69/108/18 30/107/18
f 65/150/18 64/96/18 68/100/18 69/108/18
f 22/151/16 61/152/16 65/150/16 26/149/16
f 61/152/16 60/93/16 64/96/16 65/150/16
f 23/153/15 59/154/15 63/147/15 27/146/15
f 130/155/15 58/89/15 62/92/15 131/148/15
f 19/74/4 55/156/4 59/157/4 23/75/4
f 129/158/4 54/81/4 58/84/4 130/159/4
f 18/78/4 57/160/4 61/161/4 22/79/4
f 57/160/4 56/69/4 60/72/4 61/161/4
f 86/4/11 14/3/11 171/162/11 160/163/11
f 49/54/10 48/32/10 177/164/10 167/55/10
f 174/165/12 180/166/12 91/167/12 17/168/12
f 127/169/13 46/40/13 179/170/13 187/171/13
f 5/42/4 43/172/4 51/173/4 10/43/4
f 43/172/4 42/49/4 50/52/4 51/173/4
f 3/26/4 41/174/4 53/175/4 12/27/4
f 126/176/4 40/45/4 52/48/4 128/177/4
f 12/178/9 53/179/9 47/180/9 15/181/9
f 128/182/9 52/37/9 46/40/9 127/169/9
f 10/183/7 51/184/7 49/54/7 14/53/7
f 51/184/7 50/29/7 48/32/7 49/54/7
f 117/185/5 1/186/5 40/187/5 118/188/5
f 133/189/5 126/190/5 41/18/5 119/17/5
f 156/191/4 2/192/4 45/193/4 135/194/4
f 114/195/3 7/196/3 42/197/3 120/198/3
f 120/198/3 42/197/3 43/10/3 121/9/3
f 38/199/4 111/200/4 113/201/4 39/202/4
f 111/200/4 110/203/4 112/204/4 113/201/4
f 6/205/4 75/206/4 111/200/4 38/199/4
f 75/206/4 74/207/4 110/203/4 111/200/4
f 138/208/2 146/209/2 108/210/2 79/211/2
f 79/211/2 108/210/2 109/135/2 78/134/2
f 6/212/6 37/213/6 106/214/6 75/215/6
f 75/215/6 106/214/6 107/216/6 74/217/6
f 153/218/20 101/219/20 105/116/20 154/115/20
f 101/219/20 100/88/20 104/104/20 105/116/20
f 25/220/19 99/221/19 103/111/19 29/110/19
f 99/221/19 98/222/19 102/112/19 103/111/19
f 21/71/17 95/223/17 99/221/17 25/220/17
f 95/223/17 94/224/17 98/222/17 99/221/17
f 152/225/14 97/226/14 101/219/14 153/218/14
f 97/226/14 96/85/14 100/88/14 101/219/14
f 151/227/4 93/228/4 97/229/4 152/230/4
f 93/228/4 92/77/4 96/80/4 97/229/4
f 17/70/4 91/231/4 95/223/4 21/71/4
f 91/231/4 90/232/4 94/224/4 95/223/4
f 48/32/10 11/31/10 175/233/10 177/164/10
f 85/62/12 84/234/12 181/235/12 164/63/12
f 87/236/11 86/4/11 160/163/11 161/237/11
f 150/238/11 87/236/11 161/237/11 185/239/11
f 148/240/4 81/241/4 83/242/4 149/243/4
f 81/241/4 80/41/4 82/44/4 83/242/4
f 9/244/8 89/245/8 85/62/8 11/61/8
f 89/245/8 88/246/8 84/234/8 85/62/8
f 7/50/4 77/247/4 89/248/4 9/51/4
f 77/247/4 76/249/4 88/250/4 89/248/4
f 115/251/6 5/252/6 80/253/6 122/254/6
f 122/254/6 80/253/6 81/255/6 123/256/6
f 39/202/4 113/201/4 78/257/4 8/258/4
f 113/201/4 112/204/4 79/259/4 78/257/4
f 147/260/2 139/261/2 76/262/2 124/263/2
f 124/263/2 76/262/2 77/6/2 125/5/2
f 149/264/1 83/265/1 87/236/1 150/238/1
f 83/265/1 82/1/1 86/4/1 87/236/1
f 108/210/2 124/263/2 125/5/2 109/135/2
f 146/209/2 147/260/2 124/263/2 108/210/2
f 106/214/6 122/254/6 123/256/6 107/216/6
f 37/213/6 115/251/6 122/254/6 106/214/6
f 70/140/3 120/198/3 121/9/3 71/131/3
f 35/139/3 114/195/3 120/198/3 70/140/3
f 133/189/5 119/17/5 73/127/5
f 36/143/5 117/185/5 118/188/5 72/144/5
f 155/123/6 157/21/6 117/24/6 36/124/6
f 73/127/5 119/17/5 116/20/5 34/128/5
f 71/131/3 121/9/3 115/12/3 37/132/3
f 109/135/2 125/5/2 114/8/2 35/136/2
f 72/144/5 118/188/5 133/189/5
f 118/188/5 40/187/5 126/190/5 133/189/5
f 53/179/9 128/182/9 127/169/9 47/180/9
f 41/174/4 126/176/4 128/177/4 53/175/4
f 47/180/13 127/169/13 187/171/13 165/266/13
f 55/156/4 129/158/4 130/159/4 59/157/4
f 59/154/15 130/155/15 131/148/15 63/147/15
f 63/147/21 131/148/21 132/120/21 67/119/21
f 45/267/26 72/268/26 137/269/26 135/270/26
f 72/271/27 133/272/27 159/273/27 137/274/27
f 73/275/28 44/276/28 134/277/28 136/278/28
f 133/272/29 73/279/29 136/280/29 159/273/29
f 34/281/2 116/282/2 147/260/2 146/209/2
f 116/282/2 3/283/2 139/261/2 147/260/2
f 4/284/2 34/281/2 146/209/2 138/208/2
f 98/222/19 144/98/19 145/102/19 102/112/19
f 94/224/17 143/76/17 144/98/17 98/222/17
f 90/232/4 142/73/4 143/76/4 94/224/4
f 84/234/12 140/36/12 183/285/12 181/235/12
f 88/246/8 141/33/8 140/36/8 84/234/8
f 76/249/4 139/25/4 141/28/4 88/250/4
f 112/204/4 134/13/4 138/16/4 79/259/4
f 107/216/6 123/256/6 157/21/6 155/123/6
f 13/286/1 149/264/1 150/238/1 16/287/1
f 1/46/4 148/240/4 149/243/4 13/47/4
f 170/288/10 176/289/10 57/290/10 18/291/10
f 20/82/4 151/227/4 152/230/4 24/83/4
f 24/292/14 152/225/14 153/218/14 28/293/14
f 28/293/20 153/218/20 154/115/20 32/114/20
f 74/207/4 156/191/4 135/194/4 110/203/4
f 74/217/6 107/216/6 155/123/6 156/122/6
f 123/256/6 81/255/6 148/22/6 157/21/6
f 110/203/4 135/194/4 134/13/4 112/204/4
f 135/294/5 137/295/5 159/296/5 158/297/5
f 136/298/5 134/299/5 158/297/5 159/296/5
f 189/300/13 168/301/13 20/302/13 54/303/13
f 162/304/11 182/305/11 92/306/11 93/307/11
f 188/308/13 189/300/13 54/303/13 129/309/13
f 186/58/11 162/304/11 93/307/11 151/59/11
f 163/310/12 184/311/12 142/312/12 90/313/12
f 176/289/10 166/314/10 56/315/10 57/290/10
f 180/166/12 163/310/12 90/313/12 91/167/12
f 184/311/12 172/316/12 19/317/12 142/312/12
f 178/66/13 188/308/13 129/309/13 55/67/13
f 140/36/12 15/35/12 173/318/12 183/285/12
f 15/181/13 47/180/13 165/266/13 173/319/13
f 166/314/10 174/320/10 17/321/10 56/315/10
f 16/287/11 150/238/11 185/239/11 169/322/11
f 182/305/11 170/323/11 18/324/11 92/306/11
f 186/58/11 168/57/11 169/322/11 185/239/11
f 184/311/12 163/310/12 181/235/12 183/285/12
f 162/304/11 186/58/11 185/239/11 161/237/11
f 180/166/12 174/165/12 175/64/12 164/63/12
f 178/66/13 172/65/13 173/319/13 165/266/13
f 176/289/10 170/288/10 171/56/10 167/55/10
f 172/316/12 184/311/12 183/285/12 173/318/12
f 174/320/10 166/314/10 177/164/10 175/233/10
f 168/301/13 189/300/13 179/170/13 169/325/13
f 170/323/11 182/305/11 160/163/11 171/162/11
f 46/40/13 16/39/13 169/325/13 179/170/13
f 162/326/10 161/327/10 191/328/10 190/329/10
f 160/330/13 182/331/13 193/332/13 192/333/13
f 160/334/30 192/271/30 191/335/30 161/336/30
f 162/337/4 190/338/4 193/339/4 182/340/4
f 192/341/11 193/342/11 190/343/11 191/344/11
f 188/345/4 198/346/4 196/347/4 189/348/4
f 165/349/11 195/350/11 194/351/11 178/352/11
f 179/353/30 207/354/30 197/355/30 187/356/30
f 179/357/12 189/358/12 196/359/12 207/360/12
f 187/356/30 197/355/30 195/361/30 165/362/30
f 178/363/4 194/364/4 198/346/4 188/345/4
f 195/365/13 197/366/13 198/367/13 194/368/13
f 167/369/12 200/370/12 199/371/12 176/372/12
f 166/360/11 202/357/11 201/373/11 177/326/11
f 177/354/30 201/353/30 200/374/30 167/375/30
f 176/376/4 199/377/4 202/375/4 166/374/4
f 201/378/10 202/379/10 199/380/10 200/381/10
f 181/382/30 203/383/30 206/384/30 164/385/30
f 180/386/4 205/387/4 204/388/4 163/389/4
f 181/390/10 163/391/10 204/392/10 203/393/10
f 164/394/13 206/395/13 205/396/13 180/397/13
f 203/342/12 204/398/12 205/399/12 206/343/12
f 197/366/13 207/400/13 196/401/13 198/367/13
